<mxfile host="app.diagrams.net" modified="2020-09-20T12:37:44.512Z" agent="5.0 (Windows NT 10.0; Win64; x64) AppleWebKit/537.36 (KHTML, like Gecko) Chrome/85.0.4183.102 Safari/537.36" etag="upaai7qEhPR0JHwornop" version="13.6.2" type="github">
  <diagram id="7uJOREFbTuKa3xFxk9bY" name="Page-1">
    <mxGraphModel dx="1550" dy="836" grid="1" gridSize="10" guides="1" tooltips="1" connect="1" arrows="1" fold="1" page="1" pageScale="1" pageWidth="827" pageHeight="1169" math="0" shadow="0">
      <root>
        <mxCell id="0" />
        <mxCell id="1" parent="0" />
        <mxCell id="ePXyNj8VKDGBjz8MMRLG-5" value="" style="rounded=0;whiteSpace=wrap;html=1;dashed=1;" vertex="1" parent="1">
          <mxGeometry x="10" y="270" width="350" height="170" as="geometry" />
        </mxCell>
        <mxCell id="ePXyNj8VKDGBjz8MMRLG-14" value="" style="rounded=0;whiteSpace=wrap;html=1;dashed=1;fontSize=14;fillColor=#fff2cc;strokeColor=#d6b656;" vertex="1" parent="1">
          <mxGeometry x="40" y="290" width="290" height="120" as="geometry" />
        </mxCell>
        <mxCell id="ePXyNj8VKDGBjz8MMRLG-1" value="" style="rounded=0;whiteSpace=wrap;html=1;dashed=1;" vertex="1" parent="1">
          <mxGeometry x="360" y="270" width="210" height="170" as="geometry" />
        </mxCell>
        <mxCell id="ePXyNj8VKDGBjz8MMRLG-19" style="edgeStyle=orthogonalEdgeStyle;rounded=0;orthogonalLoop=1;jettySize=auto;html=1;exitX=0.25;exitY=0;exitDx=0;exitDy=0;entryX=0.75;entryY=0;entryDx=0;entryDy=0;fontSize=14;" edge="1" parent="1" source="ePXyNj8VKDGBjz8MMRLG-2" target="ePXyNj8VKDGBjz8MMRLG-11">
          <mxGeometry relative="1" as="geometry" />
        </mxCell>
        <mxCell id="ePXyNj8VKDGBjz8MMRLG-2" value="buffer" style="rounded=0;whiteSpace=wrap;html=1;fontSize=14;fillColor=#d5e8d4;strokeColor=#82b366;" vertex="1" parent="1">
          <mxGeometry x="410" y="340" width="110" height="40" as="geometry" />
        </mxCell>
        <mxCell id="ePXyNj8VKDGBjz8MMRLG-8" style="edgeStyle=orthogonalEdgeStyle;rounded=0;orthogonalLoop=1;jettySize=auto;html=1;entryX=1;entryY=0.5;entryDx=0;entryDy=0;fontSize=14;" edge="1" parent="1" source="ePXyNj8VKDGBjz8MMRLG-3" target="ePXyNj8VKDGBjz8MMRLG-7">
          <mxGeometry relative="1" as="geometry">
            <Array as="points">
              <mxPoint x="670" y="310" />
            </Array>
          </mxGeometry>
        </mxCell>
        <mxCell id="ePXyNj8VKDGBjz8MMRLG-3" value="" style="shape=cylinder2;whiteSpace=wrap;html=1;boundedLbl=1;backgroundOutline=1;size=15;fillColor=#f5f5f5;strokeColor=#666666;fontColor=#333333;" vertex="1" parent="1">
          <mxGeometry x="640" y="330" width="60" height="60" as="geometry" />
        </mxCell>
        <mxCell id="ePXyNj8VKDGBjz8MMRLG-4" value="Disk" style="text;html=1;align=center;verticalAlign=middle;resizable=0;points=[];autosize=1;fontSize=14;" vertex="1" parent="1">
          <mxGeometry x="650" y="360" width="40" height="20" as="geometry" />
        </mxCell>
        <mxCell id="ePXyNj8VKDGBjz8MMRLG-9" style="edgeStyle=orthogonalEdgeStyle;rounded=0;orthogonalLoop=1;jettySize=auto;html=1;exitX=0;exitY=0.5;exitDx=0;exitDy=0;entryX=0.75;entryY=0;entryDx=0;entryDy=0;fontSize=14;" edge="1" parent="1" source="ePXyNj8VKDGBjz8MMRLG-7" target="ePXyNj8VKDGBjz8MMRLG-2">
          <mxGeometry relative="1" as="geometry" />
        </mxCell>
        <mxCell id="ePXyNj8VKDGBjz8MMRLG-7" value="Disk &lt;br&gt;Controller" style="rounded=0;whiteSpace=wrap;html=1;fontSize=14;fillColor=#f5f5f5;strokeColor=#666666;fontColor=#333333;" vertex="1" parent="1">
          <mxGeometry x="540" y="290" width="70" height="40" as="geometry" />
        </mxCell>
        <mxCell id="ePXyNj8VKDGBjz8MMRLG-10" value="DMA" style="text;html=1;align=center;verticalAlign=middle;resizable=0;points=[];autosize=1;fontSize=14;" vertex="1" parent="1">
          <mxGeometry x="490" y="290" width="50" height="20" as="geometry" />
        </mxCell>
        <mxCell id="ePXyNj8VKDGBjz8MMRLG-18" style="edgeStyle=orthogonalEdgeStyle;rounded=0;orthogonalLoop=1;jettySize=auto;html=1;exitX=0.25;exitY=0;exitDx=0;exitDy=0;entryX=0.75;entryY=0;entryDx=0;entryDy=0;fontSize=14;" edge="1" parent="1" source="ePXyNj8VKDGBjz8MMRLG-11" target="ePXyNj8VKDGBjz8MMRLG-16">
          <mxGeometry relative="1" as="geometry" />
        </mxCell>
        <mxCell id="ePXyNj8VKDGBjz8MMRLG-11" value="buffer" style="rounded=0;whiteSpace=wrap;html=1;fontSize=14;fillColor=#d5e8d4;strokeColor=#82b366;" vertex="1" parent="1">
          <mxGeometry x="210" y="335" width="90" height="40" as="geometry" />
        </mxCell>
        <mxCell id="ePXyNj8VKDGBjz8MMRLG-12" value="Kernel space" style="text;html=1;align=center;verticalAlign=middle;resizable=0;points=[];autosize=1;fontSize=14;fontStyle=3" vertex="1" parent="1">
          <mxGeometry x="415" y="410" width="100" height="20" as="geometry" />
        </mxCell>
        <mxCell id="ePXyNj8VKDGBjz8MMRLG-13" value="User space" style="text;html=1;align=center;verticalAlign=middle;resizable=0;points=[];autosize=1;fontSize=14;fontStyle=3" vertex="1" parent="1">
          <mxGeometry x="140" y="410" width="90" height="20" as="geometry" />
        </mxCell>
        <mxCell id="ePXyNj8VKDGBjz8MMRLG-15" value="JVM Process" style="text;html=1;align=center;verticalAlign=middle;resizable=0;points=[];autosize=1;fontSize=14;fontStyle=2" vertex="1" parent="1">
          <mxGeometry x="30" y="290" width="100" height="20" as="geometry" />
        </mxCell>
        <mxCell id="ePXyNj8VKDGBjz8MMRLG-16" value="buffer" style="rounded=0;whiteSpace=wrap;html=1;fontSize=14;fillColor=#d5e8d4;strokeColor=#82b366;" vertex="1" parent="1">
          <mxGeometry x="70" y="335" width="80" height="40" as="geometry" />
        </mxCell>
        <mxCell id="ePXyNj8VKDGBjz8MMRLG-20" value="" style="endArrow=none;html=1;fontSize=14;exitX=0.5;exitY=0;exitDx=0;exitDy=0;entryX=0.5;entryY=1;entryDx=0;entryDy=0;dashed=1;" edge="1" parent="1" source="ePXyNj8VKDGBjz8MMRLG-14" target="ePXyNj8VKDGBjz8MMRLG-14">
          <mxGeometry width="50" height="50" relative="1" as="geometry">
            <mxPoint x="390" y="440" as="sourcePoint" />
            <mxPoint x="440" y="390" as="targetPoint" />
          </mxGeometry>
        </mxCell>
        <mxCell id="ePXyNj8VKDGBjz8MMRLG-21" value="堆内内存" style="text;html=1;align=center;verticalAlign=middle;resizable=0;points=[];autosize=1;fontSize=14;" vertex="1" parent="1">
          <mxGeometry x="75" y="390" width="70" height="20" as="geometry" />
        </mxCell>
        <mxCell id="ePXyNj8VKDGBjz8MMRLG-22" value="堆外内存" style="text;html=1;align=center;verticalAlign=middle;resizable=0;points=[];autosize=1;fontSize=14;" vertex="1" parent="1">
          <mxGeometry x="220" y="390" width="70" height="20" as="geometry" />
        </mxCell>
      </root>
    </mxGraphModel>
  </diagram>
</mxfile>
